HIERARCHY
ROOT Hips
{
 OFFSET 0.000000 0.000000 0.000000
 CHANNELS 6 Xposition Yposition Zposition Yrotation Xrotation Zrotation
 JOINT Chest
 {
  OFFSET 0.000000 9.585900 0.002600
  CHANNELS 3 Yrotation Xrotation Zrotation
  JOINT Chest2
  {
   OFFSET 0.000000 9.601200 -0.005300
   CHANNELS 3 Yrotation Xrotation Zrotation
   JOINT Chest3
   {
    OFFSET 0.000000 9.561800 0.000000
    CHANNELS 3 Yrotation Xrotation Zrotation
    JOINT Chest4
    {
     OFFSET 0.000000 9.552100 0.000000
     CHANNELS 3 Yrotation Xrotation Zrotation
     JOINT Neck
     {
      OFFSET 0.000000 14.453000 0.000000
      CHANNELS 3 Yrotation Xrotation Zrotation
      JOINT Head
      {
       OFFSET 0.000000 8.936500 -0.011300
       CHANNELS 3 Yrotation Xrotation Zrotation
       End Site
       {
        OFFSET 0.000000 17.073600 -0.006000
       }
      }
     }
     JOINT RightCollar
     {
      OFFSET -2.921100 9.558500 0.000000
      CHANNELS 3 Yrotation Xrotation Zrotation
      JOINT RightShoulder
      {
       OFFSET -13.519700 0.000000 0.000000
       CHANNELS 3 Yrotation Xrotation Zrotation
       JOINT RightElbow
       {
        OFFSET 0.000000 -29.696600 0.000000
        CHANNELS 3 Yrotation Xrotation Zrotation
        JOINT RightWrist
        {
         OFFSET 0.000000 -24.004700 0.000000
         CHANNELS 3 Yrotation Xrotation Zrotation
         End Site
         {
          OFFSET 0.000000 -17.728500 0.000000
         }
        }
       }
      }
     }
     JOINT LeftCollar
     {
      OFFSET 2.921100 9.558500 0.000000
      CHANNELS 3 Yrotation Xrotation Zrotation
      JOINT LeftShoulder
      {
       OFFSET 13.519700 0.000000 0.000000
       CHANNELS 3 Yrotation Xrotation Zrotation
       JOINT LeftElbow
       {
        OFFSET 0.000000 -29.696600 0.000000
        CHANNELS 3 Yrotation Xrotation Zrotation
        JOINT LeftWrist
        {
         OFFSET 0.000000 -24.004700 0.000000
         CHANNELS 3 Yrotation Xrotation Zrotation
         End Site
         {
          OFFSET 0.000000 -17.728500 0.000000
         }
        }
       }
      }
     }
    }
   }
  }
 }
 JOINT RightHip
 {
  OFFSET -7.771700 -0.012900 -0.001300
  CHANNELS 3 Yrotation Xrotation Zrotation
  JOINT RightKnee
  {
   OFFSET 0.000000 -40.869800 0.001200
   CHANNELS 3 Yrotation Xrotation Zrotation
   JOINT RightAnkle
   {
    OFFSET 0.000000 -39.717900 0.002100
    CHANNELS 3 Yrotation Xrotation Zrotation
    JOINT RightToe
    {
     OFFSET 0.000000 -4.965400 11.033500
     CHANNELS 3 Yrotation Xrotation Zrotation
     End Site
     {
      OFFSET 0.000000 -1.423100 5.872300
     }
    }
   }
  }
 }
 JOINT LeftHip
 {
  OFFSET 7.771700 -0.012900 -0.001300
  CHANNELS 3 Yrotation Xrotation Zrotation
  JOINT LeftKnee
  {
   OFFSET 0.000000 -40.869800 0.001200
   CHANNELS 3 Yrotation Xrotation Zrotation
   JOINT LeftAnkle
   {
    OFFSET 0.000000 -39.717900 0.002100
    CHANNELS 3 Yrotation Xrotation Zrotation
    JOINT LeftToe
    {
     OFFSET 0.000000 -4.965400 11.033500
     CHANNELS 3 Yrotation Xrotation Zrotation
     End Site
     {
      OFFSET 0.000000 -1.423100 5.872300
     }
    }
   }
  }
 }
}
MOTION
Frames: 11
Frame Time: 0.008333
0.000000 85.388000 0.000000 0.000000 -5.767877 0.000000 0.000000 11.653817 0.000000 0.000000 -5.885947 0.000000 0.000000 -0.000000 0.000000 0.000000 -0.000000 0.000000 0.000000 12.528835 0.000000 0.000000 0.711642 0.000000 0.000000 -0.000000 0.000000 0.000000 0.000000 -90.000000 0.000000 -2.309062 0.000000 0.000000 2.309062 0.000000 0.000000 -0.000000 0.000000 0.000000 -0.000000 90.000000 0.000000 -2.309062 0.000000 0.000000 2.309062 0.000000 0.000000 8.520406 0.000000 0.000000 1.905762 0.000000 -0.000000 -4.658285 0.000000 0.000000 -0.000000 0.000000 0.000000 8.520406 0.000000 0.000000 1.905762 0.000000 -0.000000 -4.658285 0.000000 0.000000 -0.000000 0.000000
-0.092145 50.028198 36.374811 173.666426 -33.392805 -6.526499 6.907902 21.175499 7.600982 0.789770 3.086058 0.769293 1.300328 4.939436 1.232697 5.423727 17.976558 5.259338 -1.617386 15.630997 2.483685 -3.896747 -6.566431 5.244138 -5.231283 -3.172748 -9.093110 5.747677 -7.299108 4.367668 44.105788 -75.923367 -58.462615 2.530894 -2.060048 4.696271 -7.627973 -4.640067 2.461098 3.019998 -3.522308 -3.182946 -90.127791 -72.144138 99.918929 10.218230 -2.504792 -18.469885 2.722815 -48.373415 7.136523 -70.928619 81.544575 -59.674426 0.277325 -6.070153 -2.807783 -0.004769 0.952386 -0.068931 -13.003903 -51.404645 18.045142 -132.194982 87.738926 -139.359919 0.064548 -9.240897 4.343028 -0.072204 -0.152274 0.016714
-0.092487 50.028129 36.380573 173.654537 -33.355545 -6.496054 6.902670 21.193326 7.600288 0.794921 3.040621 0.743292 1.300595 4.960567 1.246200 5.419177 17.981106 5.255085 -1.610226 15.631631 2.481930 -3.886495 -6.557901 5.234545 -5.194536 -3.203012 -9.133372 5.722198 -7.296422 4.381364 44.675599 -75.912318 -59.030577 2.659908 -1.758945 4.952115 -7.661783 -4.653186 2.479738 3.075376 -3.493875 -3.142276 -90.281930 -71.969415 100.122547 10.063934 -2.396395 -18.763274 2.679894 -48.409774 7.115571 -70.898643 81.569639 -59.642712 0.283128 -6.071717 -2.850993 0.001150 0.950330 -0.063495 -12.952044 -51.451256 18.003029 -132.048241 87.743414 -139.204400 0.062658 -9.243645 4.337712 -0.070650 -0.144162 0.018615
-0.083486 50.029683 36.387534 173.628153 -33.324018 -6.509945 6.929543 21.170007 7.632148 0.791496 3.055620 0.749004 1.300427 4.962092 1.246085 5.422444 17.975805 5.250893 -1.608363 15.640622 2.481692 -3.880437 -6.563960 5.226835 -5.165094 -3.229678 -9.162012 5.717003 -7.299174 4.369996 45.180644 -75.901124 -59.541430 2.789868 -1.458080 5.206308 -7.699629 -4.659150 2.502136 3.134159 -3.453844 -3.080445 -90.508541 -71.887870 100.384568 9.929155 -2.257603 -19.089822 2.598877 -48.440636 7.159813 -70.859043 81.576840 -59.551562 0.260206 -6.048501 -2.966875 0.050050 0.930797 -0.009152 -12.956740 -51.486067 18.056642 -132.054765 87.737717 -139.202310 0.057495 -9.251121 4.333717 -0.069562 -0.142945 0.004402
-0.079062 50.031741 36.392522 173.606108 -33.301412 -6.493776 6.942390 21.159430 7.631247 0.785481 3.092883 0.767431 1.302801 4.965898 1.246357 5.418262 17.932755 5.221256 -1.595237 15.685312 2.499958 -3.884375 -6.599184 5.212074 -5.148437 -3.241973 -9.177394 5.719172 -7.302487 4.343294 45.650919 -75.891350 -60.009637 2.917146 -1.173884 5.467371 -7.740389 -4.650334 2.531433 3.197409 -3.426723 -3.037777 -90.734573 -71.854320 100.634679 9.798937 -2.072592 -19.470473 2.557324 -48.464323 7.165360 -70.792889 81.595792 -59.477392 0.269050 -6.035021 -2.997771 0.050011 0.922396 -0.012858 -12.926960 -51.511485 18.063312 -131.865091 87.734170 -139.020946 0.049882 -9.257936 4.338725 -0.070921 -0.138403 0.005353
-0.075716 50.034645 36.395778 173.592976 -33.289427 -6.471593 6.937085 21.191243 7.633257 0.792310 3.072473 0.755978 1.306546 4.957256 1.240008 5.421592 17.948088 5.229083 -1.594782 15.677460 2.495030 -3.885817 -6.611924 5.205491 -5.144336 -3.272314 -9.193347 5.751737 -7.327895 4.254745 45.886518 -75.904198 -60.258167 3.036898 -0.918836 5.743644 -7.782561 -4.664300 2.555378 3.276311 -3.403166 -2.999826 -91.000363 -71.872043 100.905283 9.662032 -1.830503 -19.911213 2.526684 -48.476342 7.159846 -70.734862 81.614791 -59.428571 0.293173 -6.027899 -2.989935 0.030261 0.918778 -0.044199 -12.886901 -51.528568 18.037147 -131.760967 87.733108 -138.915300 0.048390 -9.260297 4.336603 -0.069274 -0.138611 0.004209
-0.070858 50.037620 36.399009 173.578097 -33.279438 -6.454464 6.937115 21.201390 7.631890 0.793048 3.072900 0.755876 1.313642 4.949177 1.233040 5.428910 17.962320 5.237285 -1.602017 15.664636 2.490978 -3.885123 -6.620250 5.198540 -5.132717 -3.313300 -9.224903 5.762667 -7.333023 4.203036 45.902309 -75.925565 -60.288140 3.183311 -0.750984 6.032944 -7.828493 -4.679879 2.582523 3.373303 -3.384902 -2.965506 -91.294684 -71.921949 101.178596 9.511442 -1.538015 -20.402678 2.520720 -48.488208 7.153798 -70.711432 81.622128 -59.397974 0.309255 -6.030863 -3.006989 0.019285 0.925306 -0.046877 -12.865313 -51.540394 18.030862 -131.748261 87.736133 -138.909238 0.044162 -9.265397 4.333465 -0.069595 -0.136824 0.006282
-0.056358 50.039070 36.407259 173.537922 -33.247347 -6.481893 6.980126 21.170358 7.684794 0.788804 3.080635 0.761294 1.312803 4.952607 1.232948 5.434212 17.973564 5.251264 -1.608129 15.639351 2.469079 -3.890383 -6.635343 5.183470 -5.112083 -3.360784 -9.270811 5.756395 -7.326377 4.192046 46.456674 -75.912700 -60.820320 3.238189 -0.546842 6.326103 -7.843754 -4.709083 2.575524 3.426242 -3.377156 -2.948598 -91.548237 -71.949233 101.422016 9.352848 -1.220945 -20.909921 2.470112 -48.523931 7.220935 -70.577615 81.630661 -59.198108 0.251283 -6.009241 -3.112721 0.089160 0.916439 -0.005388 -12.907242 -51.567885 18.134608 -131.732025 87.722036 -138.891868 0.048447 -9.287317 4.319014 -0.075668 -0.125163 0.009375
-0.052505 50.038529 36.414489 173.496209 -33.207837 -6.442203 6.998749 21.139403 7.666767 0.782625 3.085323 0.765599 1.316697 4.955258 1.235208 5.432249 17.965824 5.247416 -1.612179 15.632180 2.462945 -3.896128 -6.648701 5.173825 -5.091585 -3.383894 -9.302997 5.758667 -7.330572 4.133615 46.765653 -75.939455 -61.106963 3.279143 -0.401722 6.615580 -7.887296 -4.714618 2.604310 3.572791 -3.361467 -2.895652 -91.784795 -72.042113 101.570101 9.209713 -0.950223 -21.374923 2.416853 -48.570121 7.241831 -70.482825 81.658805 -59.125644 0.252839 -5.996693 -3.155661 0.089540 0.912251 0.001398 -12.870189 -51.611992 18.132303 -131.554612 87.720454 -138.726951 0.045764 -9.291634 4.326320 -0.075008 -0.124675 0.001989
-0.045806 50.040014 36.418783 173.468946 -33.189675 -6.424471 7.006577 21.135694 7.665944 0.782507 3.081433 0.768824 1.312634 4.960097 1.238007 5.438971 17.954726 5.234036 -1.614155 15.628873 2.460064 -3.905224 -6.659278 5.171267 -5.066368 -3.402688 -9.336846 5.753580 -7.334211 4.078947 46.687653 -75.982890 -61.021567 3.351836 -0.390269 6.892904 -7.922960 -4.719669 2.629336 3.708750 -3.349014 -2.828094 -92.004782 -72.140963 101.698304 9.101957 -0.724100 -21.760687 2.388759 -48.593533 7.255706 -70.421717 81.678051 -59.055566 0.244774 -5.985779 -3.192638 0.098795 0.907003 0.004991 -12.855959 -51.630928 18.145989 -131.480188 87.716317 -138.663310 0.043309 -9.298356 4.332392 -0.075492 -0.124424 -0.003626
-0.038809 50.041556 36.422436 173.447680 -33.174308 -6.411605 7.011441 21.132873 7.672918 0.779330 3.076820 0.766859 1.319940 4.956377 1.231503 5.438353 17.952770 5.232880 -1.616579 15.626136 2.457148 -3.909994 -6.663390 5.168075 -5.032079 -3.422291 -9.374175 5.733532 -7.336119 4.038782 46.926429 -76.019581 -61.205962 3.383139 -0.375761 7.102871 -7.928235 -4.722774 2.629916 3.781050 -3.346954 -2.752561 -92.269697 -72.237241 101.878272 9.026966 -0.541675 -22.017116 2.365381 -48.613188 7.265660 -70.379411 81.693715 -58.997514 0.240788 -5.978578 -3.237759 0.106135 0.905251 0.024696 -12.849501 -51.647533 18.158300 -131.481314 87.713200 -138.671035 0.042060 -9.302718 4.333579 -0.075132 -0.126285 -0.008277
